<svg xmlns="http://www.w3.org/2000/svg" width="552.685" height="151.719" viewBox="0 0 552.685 151.719"><g transform="translate(8911.301 11753.371)"><path d="M2.784,0V-19.082H7.25a9.528,9.528,0,0,1,4.9,1.145,7.052,7.052,0,0,1,2.9,3.277,12.279,12.279,0,0,1,.957,5.06,12.406,12.406,0,0,1-.957,5.061,7.3,7.3,0,0,1-2.886,3.35A9.111,9.111,0,0,1,7.308,0ZM4.321-1.305H7.134a7.408,7.408,0,0,0,4.1-1.044A6.256,6.256,0,0,0,13.63-5.264,11.158,11.158,0,0,0,14.413-9.6a11.023,11.023,0,0,0-.783-4.335,6.107,6.107,0,0,0-2.393-2.857,7.572,7.572,0,0,0-4.1-1.015H4.321ZM19.981,0V-19.082H30.537v1.305H21.518v6.989h7.569v1.334H21.518v8.149h9.309V0Zm4.843-20.445-.667-.754,3.683-3.6.957,1.073ZM38.164,0,31.929-19.082h1.624L37-8.091q.551,1.711.972,3.176t1,3.2h.116q.58-1.74,1.029-3.2t.972-3.176l3.422-10.991h1.566L39.875,0ZM48.6,0V-19.082H59.16v1.305H50.141v6.989H57.71v1.334H50.141v8.149H59.45V0ZM63.22,0V-19.082h1.537V-1.305h8.7V0ZM82.592.348A7.12,7.12,0,0,1,78.5-.87,8.074,8.074,0,0,1,75.69-4.336,12.688,12.688,0,0,1,74.675-9.6a12.463,12.463,0,0,1,1.015-5.249A7.915,7.915,0,0,1,78.5-18.241a7.245,7.245,0,0,1,4.089-1.189,7.226,7.226,0,0,1,4.1,1.189,7.955,7.955,0,0,1,2.8,3.393A12.463,12.463,0,0,1,90.509-9.6a12.688,12.688,0,0,1-1.015,5.264A8.116,8.116,0,0,1,86.7-.87,7.1,7.1,0,0,1,82.592.348Zm0-1.392A5.366,5.366,0,0,0,85.912-2.1a6.957,6.957,0,0,0,2.2-2.987,11.742,11.742,0,0,0,.8-4.51,11.606,11.606,0,0,0-.8-4.509,6.767,6.767,0,0,0-2.2-2.929,5.469,5.469,0,0,0-3.32-1.03,5.486,5.486,0,0,0-3.306,1.03,6.622,6.622,0,0,0-2.2,2.929A11.8,11.8,0,0,0,76.3-9.6a11.936,11.936,0,0,0,.783,4.51,6.806,6.806,0,0,0,2.2,2.987A5.383,5.383,0,0,0,82.592-1.044ZM94.511,0V-19.082h4.93a11.949,11.949,0,0,1,3.7.507,4.642,4.642,0,0,1,2.407,1.7,5.3,5.3,0,0,1,.855,3.161,5.554,5.554,0,0,1-.826,3.132,5,5,0,0,1-2.364,1.87,9.7,9.7,0,0,1-3.654.623H96.048V0Zm1.537-9.367h3.161a7.106,7.106,0,0,0,4.248-1.029,3.874,3.874,0,0,0,1.378-3.321,3.466,3.466,0,0,0-1.421-3.219,8.456,8.456,0,0,0-4.321-.87H96.048ZM110.142,0V-19.082h4.93a11.949,11.949,0,0,1,3.7.507,4.642,4.642,0,0,1,2.407,1.7,5.3,5.3,0,0,1,.855,3.161,5.554,5.554,0,0,1-.826,3.132,5,5,0,0,1-2.364,1.87,9.7,9.7,0,0,1-3.654.623h-3.509V0Zm1.537-9.367h3.161a7.106,7.106,0,0,0,4.248-1.029,3.874,3.874,0,0,0,1.378-3.321,3.466,3.466,0,0,0-1.421-3.219,8.456,8.456,0,0,0-4.321-.87h-3.045ZM125.773,0V-19.082h10.556v1.305H127.31v6.989h7.569v1.334H127.31v8.149h9.309V0Zm21.054.348a7.926,7.926,0,0,1-2.465-.377,5.313,5.313,0,0,1-2.074-1.262,6.121,6.121,0,0,1-1.45-2.393,11.264,11.264,0,0,1-.536-3.741V-19.082h1.566V-7.54a9.211,9.211,0,0,0,.682,3.915,4.158,4.158,0,0,0,1.813,2,5.323,5.323,0,0,0,2.465.58,5.5,5.5,0,0,0,2.494-.58,4.186,4.186,0,0,0,1.856-2,9.042,9.042,0,0,0,.7-3.915V-19.082h1.479V-7.424a11.264,11.264,0,0,1-.536,3.741,6.029,6.029,0,0,1-1.464,2.393,5.436,5.436,0,0,1-2.088,1.262A7.832,7.832,0,0,1,146.827.348ZM158.456,0V-19.082h5.539a10.315,10.315,0,0,1,3.35.493,4.386,4.386,0,0,1,2.233,1.624,5.08,5.08,0,0,1,.8,2.987,5.124,5.124,0,0,1-.8,2.944,4.963,4.963,0,0,1-2.233,1.783,8.525,8.525,0,0,1-3.35.609h-4V0Zm10.527,0-5.307-9.077,1.392-.551L170.781,0Zm-8.99-9.918h3.654a6.159,6.159,0,0,0,3.813-1.015,3.6,3.6,0,0,0,1.32-3.045,3.269,3.269,0,0,0-1.32-2.972,7.03,7.03,0,0,0-3.813-.855h-3.654ZM179.394,0V-19.082h10.527v1.305h-8.99v7.4h7.6v1.3h-7.6V0Zm13.543,0V-19.082h5.539a10.315,10.315,0,0,1,3.35.493,4.386,4.386,0,0,1,2.233,1.624,5.08,5.08,0,0,1,.8,2.987,5.124,5.124,0,0,1-.8,2.944,4.963,4.963,0,0,1-2.233,1.783,8.525,8.525,0,0,1-3.35.609h-4V0Zm10.527,0-5.307-9.077,1.392-.551L205.262,0Zm-8.99-9.918h3.654a6.159,6.159,0,0,0,3.813-1.015,3.6,3.6,0,0,0,1.32-3.045,3.269,3.269,0,0,0-1.32-2.972,7.03,7.03,0,0,0-3.813-.855h-3.654ZM215.151.348A7.12,7.12,0,0,1,211.062-.87a8.074,8.074,0,0,1-2.813-3.466A12.688,12.688,0,0,1,207.234-9.6a12.463,12.463,0,0,1,1.015-5.249,7.915,7.915,0,0,1,2.813-3.393,7.245,7.245,0,0,1,4.089-1.189,7.226,7.226,0,0,1,4.1,1.189,7.955,7.955,0,0,1,2.8,3.393A12.463,12.463,0,0,1,223.068-9.6a12.688,12.688,0,0,1-1.015,5.264,8.116,8.116,0,0,1-2.8,3.466A7.1,7.1,0,0,1,215.151.348Zm0-1.392a5.366,5.366,0,0,0,3.32-1.059,6.957,6.957,0,0,0,2.2-2.987,11.742,11.742,0,0,0,.8-4.51,11.606,11.606,0,0,0-.8-4.509,6.767,6.767,0,0,0-2.2-2.929,5.469,5.469,0,0,0-3.32-1.03,5.486,5.486,0,0,0-3.306,1.03,6.622,6.622,0,0,0-2.2,2.929,11.8,11.8,0,0,0-.783,4.509,11.935,11.935,0,0,0,.783,4.51,6.806,6.806,0,0,0,2.2,2.987A5.383,5.383,0,0,0,215.151-1.044ZM227.07,0V-19.082h1.6l7.83,13.166,2.146,3.857h.116q-.058-1.421-.13-2.842t-.072-2.842V-19.082H240V0h-1.6l-7.83-13.2-2.146-3.828h-.116q.087,1.363.145,2.726t.058,2.784V0Zm22.214,0V-17.777h-6.032v-1.305h13.6v1.305h-6.032V0Zm6.989-6.612V-7.888h6.409v1.276ZM266.22,0V-19.082h10.556v1.305h-9.019v6.989h7.569v1.334h-7.569v8.149h9.309V0Zm14.616,0V-19.082h1.6l7.83,13.166,2.146,3.857h.116q-.058-1.421-.13-2.842t-.073-2.842V-19.082h1.45V0h-1.6l-7.83-13.2L282.2-17.023h-.116q.087,1.363.145,2.726t.058,2.784V0Zm18.125,0V-19.082h4.466a9.528,9.528,0,0,1,4.9,1.145,7.052,7.052,0,0,1,2.9,3.277,12.279,12.279,0,0,1,.957,5.06,12.406,12.406,0,0,1-.957,5.061,7.3,7.3,0,0,1-2.885,3.35A9.111,9.111,0,0,1,303.485,0ZM300.5-1.305h2.813a7.408,7.408,0,0,0,4.1-1.044,6.256,6.256,0,0,0,2.393-2.915A11.158,11.158,0,0,0,310.59-9.6a11.023,11.023,0,0,0-.783-4.335,6.107,6.107,0,0,0-2.393-2.857,7.572,7.572,0,0,0-4.1-1.015H300.5ZM324.742.348A5.368,5.368,0,0,1,321.9-.391a5.524,5.524,0,0,1-1.972-2.1l1.131-.783a4.915,4.915,0,0,0,1.6,1.711,3.869,3.869,0,0,0,2.03.522,3.039,3.039,0,0,0,2.538-1.044,5.383,5.383,0,0,0,.827-3.335V-19.082h1.537v13.8a8.041,8.041,0,0,1-.478,2.842,4.233,4.233,0,0,1-1.552,2.03A4.793,4.793,0,0,1,324.742.348Zm16.414,0a7.927,7.927,0,0,1-2.465-.377,5.313,5.313,0,0,1-2.073-1.262,6.121,6.121,0,0,1-1.45-2.393,11.264,11.264,0,0,1-.536-3.741V-19.082H336.2V-7.54a9.211,9.211,0,0,0,.681,3.915,4.158,4.158,0,0,0,1.813,2,5.323,5.323,0,0,0,2.465.58,5.5,5.5,0,0,0,2.494-.58,4.185,4.185,0,0,0,1.856-2,9.042,9.042,0,0,0,.7-3.915V-19.082h1.479V-7.424a11.264,11.264,0,0,1-.536,3.741,6.029,6.029,0,0,1-1.465,2.393,5.436,5.436,0,0,1-2.088,1.262A7.832,7.832,0,0,1,341.156.348ZM352.785,0V-19.082h1.6l7.83,13.166,2.146,3.857h.116q-.058-1.421-.13-2.842t-.073-2.842V-19.082h1.45V0h-1.6l-7.83-13.2-2.146-3.828h-.116q.087,1.363.145,2.726t.058,2.784V0ZM370.91,0V-19.082h1.537V0Zm13.427.348A7.12,7.12,0,0,1,380.248-.87a8.074,8.074,0,0,1-2.813-3.466A12.688,12.688,0,0,1,376.42-9.6a12.463,12.463,0,0,1,1.015-5.249,7.915,7.915,0,0,1,2.813-3.393,7.245,7.245,0,0,1,4.089-1.189,7.225,7.225,0,0,1,4.1,1.189,7.955,7.955,0,0,1,2.8,3.393A12.463,12.463,0,0,1,392.254-9.6a12.688,12.688,0,0,1-1.015,5.264,8.116,8.116,0,0,1-2.8,3.466A7.1,7.1,0,0,1,384.337.348Zm0-1.392a5.366,5.366,0,0,0,3.32-1.059,6.957,6.957,0,0,0,2.2-2.987,11.743,11.743,0,0,0,.8-4.51,11.607,11.607,0,0,0-.8-4.509,6.767,6.767,0,0,0-2.2-2.929,5.469,5.469,0,0,0-3.32-1.03,5.486,5.486,0,0,0-3.306,1.03,6.622,6.622,0,0,0-2.2,2.929,11.8,11.8,0,0,0-.783,4.509,11.935,11.935,0,0,0,.783,4.51,6.807,6.807,0,0,0,2.2,2.987A5.383,5.383,0,0,0,384.337-1.044ZM396.256,0V-19.082h5.539a10.315,10.315,0,0,1,3.349.493,4.386,4.386,0,0,1,2.233,1.624,5.08,5.08,0,0,1,.8,2.987,5.124,5.124,0,0,1-.8,2.944,4.963,4.963,0,0,1-2.233,1.783,8.525,8.525,0,0,1-3.349.609h-4V0Zm10.527,0-5.307-9.077,1.392-.551L408.581,0Zm-8.99-9.918h3.654a6.159,6.159,0,0,0,3.814-1.015,3.6,3.6,0,0,0,1.319-3.045,3.269,3.269,0,0,0-1.319-2.972,7.03,7.03,0,0,0-3.814-.855h-3.654Z" transform="translate(-8911.383 -11602)" fill="#474432"/><path d="M361.823,150.37H361.6a16.513,16.513,0,0,1-5.007-.725c-3.992-1.3-6.546-3.619-7.593-6.9-1.168-3.657-.482-8.538,2.038-14.508a94.407,94.407,0,0,1,11.226-18.664c.314.543.652,1.082,1.007,1.6-6.433,9.558-13.483,22.137-10.585,27.782a6.659,6.659,0,0,0,5.22,3.5,16.782,16.782,0,0,0,2.977.249,28.485,28.485,0,0,0,5.192-.534c16.077-3.018,40.049-17.906,57.327-29.862a14.006,14.006,0,0,1-.5,3.944,3.063,3.063,0,0,1-1.989,2.032,17.5,17.5,0,0,1-4.36.677v1.693c1.193-.113,2.76-.184,4.657-.211,1.393-.02,2.887-.034,4.441-.04a352.528,352.528,0,0,1-31.083,18.735c-10.947,5.732-20.066,9.308-27.1,10.628a31.68,31.68,0,0,1-5.636.6m146.021-27.448h0L485.669,81.034l8.779-11.674A824.305,824.305,0,0,1,552.685.289l-44.84,122.633Zm-122.026-1.074a29.494,29.494,0,0,1-14.939-3.6,23.216,23.216,0,0,1-7.615-7.071c1.425-2.119,2.982-4.33,4.627-6.572a24.988,24.988,0,0,0,3.54,8.48c3.257,4.689,8.383,7.067,15.236,7.067a14.4,14.4,0,0,0,5.29-.889,19.417,19.417,0,0,0,3.512-1.735,5.554,5.554,0,0,0,2.031-2.074,6.6,6.6,0,0,0,.423-2.582v-8.126a14.811,14.811,0,0,0-.677-5.163,3.831,3.831,0,0,0-2.5-2.286,20.079,20.079,0,0,0-5.376-.677V94.93c1.016.055,2.206.1,3.555.127l4.275.085c1.487.028,2.869.043,4.1.043,1.853,0,3.547-.028,5.037-.086,1.446-.054,2.709-.113,3.766-.168v1.693a6.681,6.681,0,0,0-2.793.594,2.747,2.747,0,0,0-1.227,2.031,26.7,26.7,0,0,0-.3,4.656v16.76H404.1a12.62,12.62,0,0,0-.634-3.132c-.366-1.129-.921-1.693-1.651-1.693a2.268,2.268,0,0,0-1.016.254,15.589,15.589,0,0,0-1.778,1.185,24.816,24.816,0,0,1-5.925,3.343,19.959,19.959,0,0,1-7.28,1.228Zm-54.427,0a20.317,20.317,0,0,1-7.11-1.016,30.683,30.683,0,0,1-4.486-2.117,6.156,6.156,0,0,0-2.878-1.184,1.288,1.288,0,0,0-1.227.93,12.188,12.188,0,0,0-.634,2.793H313.1c.113-1.172.183-2.58.211-4.191s.058-3.736.086-6.306c.028-2.6.042-5.908.042-9.819h1.947a35.271,35.271,0,0,0,1.9,9.48,15.764,15.764,0,0,0,4.825,7.067,13.339,13.339,0,0,0,8.677,2.667,12.62,12.62,0,0,0,5.29-1.143,9.63,9.63,0,0,0,4.106-3.64A11.833,11.833,0,0,0,341.8,108.9a11.049,11.049,0,0,0-1.651-6.053,19.045,19.045,0,0,0-4.614-4.825,76.161,76.161,0,0,0-6.941-4.613c-2.644-1.631-5.15-3.311-7.449-4.994a21.119,21.119,0,0,1-5.545-5.883,15.108,15.108,0,0,1-2.073-8.083,14.3,14.3,0,0,1,2.243-8.253,13.525,13.525,0,0,1,5.884-4.825A19.568,19.568,0,0,1,329.44,59.8a16.618,16.618,0,0,1,6.433.974,23.108,23.108,0,0,1,3.894,2.158c.677.392,1.227.691,1.65.888a2.917,2.917,0,0,0,1.227.3,1.289,1.289,0,0,0,1.228-.93,12.258,12.258,0,0,0,.635-2.793h1.946c-.054.927-.122,2.015-.211,3.428-.085,1.327-.141,3.093-.169,5.247s-.042,4.955-.042,8.592h-1.947a24.578,24.578,0,0,0-1.778-7.787,15.077,15.077,0,0,0-4.444-6.094,11.831,11.831,0,0,0-7.661-2.37,10.509,10.509,0,0,0-7.406,2.709,9.283,9.283,0,0,0-2.92,7.11,10.354,10.354,0,0,0,1.946,6.391,19.671,19.671,0,0,0,5.206,4.656c2.191,1.394,4.57,2.889,7.069,4.445a87.933,87.933,0,0,1,7.829,5.376,22.585,22.585,0,0,1,5.417,5.883,14.583,14.583,0,0,1,1.99,7.787,15.507,15.507,0,0,1-2.455,8.973,15.18,15.18,0,0,1-6.518,5.333,22.253,22.253,0,0,1-8.972,1.779Zm-135.179-1.184h0c-1.3-.113-2.935-.185-4.867-.212s-3.915-.043-5.883-.043c-2.193,0-4.272.015-6.179.043s-3.468.1-4.655.211V118.97a17.5,17.5,0,0,0,4.359-.677,3.068,3.068,0,0,0,1.99-2.031,15.489,15.489,0,0,0,.508-4.571V69.706a15.435,15.435,0,0,0-.508-4.613,3.185,3.185,0,0,0-1.99-2.031,14.468,14.468,0,0,0-4.359-.634V60.735c1.135.054,2.658.113,4.655.169,1.919.057,4,.085,6.179.085,1.955,0,3.934-.028,5.883-.085,2.01-.059,3.6-.113,4.868-.169v1.693a14.469,14.469,0,0,0-4.36.635,3.18,3.18,0,0,0-1.988,2.031,15.383,15.383,0,0,0-.508,4.613V89.684h27.51V69.707a15.424,15.424,0,0,0-.508-4.613,3.181,3.181,0,0,0-1.989-2.031,14.485,14.485,0,0,0-4.36-.634V60.736c1.242.054,2.847.113,4.909.169,1.977.056,3.943.085,5.841.085,2.179,0,4.259-.028,6.18-.085,1.976-.059,3.5-.113,4.656-.169v1.693a14.469,14.469,0,0,0-4.36.635,3.181,3.181,0,0,0-1.989,2.031,15.427,15.427,0,0,0-.508,4.613v41.984a15.491,15.491,0,0,0,.508,4.571,3.065,3.065,0,0,0,1.989,2.031,17.491,17.491,0,0,0,4.36.677v1.693c-1.19-.113-2.755-.183-4.656-.21s-3.986-.043-6.18-.043c-1.912,0-3.877.015-5.841.043s-3.612.1-4.909.211v-1.693a17.5,17.5,0,0,0,4.36-.677,3.064,3.064,0,0,0,1.989-2.031,15.5,15.5,0,0,0,.508-4.571V91.379H189.358v20.315a15.462,15.462,0,0,0,.508,4.571,3.062,3.062,0,0,0,1.989,2.031,17.492,17.492,0,0,0,4.36.677v1.693Zm-140.006,0h0c-1.58-.113-3.243-.185-4.951-.212s-3.319-.043-4.782-.043c-1.406,0-2.616.015-3.6.043a26.68,26.68,0,0,0-2.751.211V118.97a8.524,8.524,0,0,0,3.471-1.989,13.589,13.589,0,0,0,3.215-5.376l19.9-51.294H68.06l20.654,53.242a8.955,8.955,0,0,0,2.878,4.273,6.235,6.235,0,0,0,2.962,1.142v1.693c-1.129-.113-2.528-.183-4.148-.21s-3.273-.043-4.909-.043c-2.194,0-4.273.015-6.18.043s-3.467.1-4.656.211V118.97c2.864-.113,4.715-.611,5.5-1.481s.615-2.765-.508-5.63L74.462,97.978H53.992l-3.454,8.973a22.675,22.675,0,0,0-1.608,5.714,6.419,6.419,0,0,0,.465,3.683,4.159,4.159,0,0,0,2.455,1.947,15.235,15.235,0,0,0,4.359.677v1.693Zm8.162-49.648-9.725,25.27H73.829Zm81.561,49.646h0V118.97a17.492,17.492,0,0,0,4.36-.677,3.063,3.063,0,0,0,1.989-2.031,15.456,15.456,0,0,0,.509-4.571V69.706a15.386,15.386,0,0,0-.509-4.613,3.182,3.182,0,0,0-1.989-2.031,14.475,14.475,0,0,0-4.36-.634V60.735c1.141.055,2.664.113,4.657.169,1.919.057,4,.085,6.179.085,1.955,0,3.934-.028,5.883-.085,2.01-.059,3.6-.113,4.868-.169v1.693a14.467,14.467,0,0,0-4.36.635,3.18,3.18,0,0,0-1.989,2.031,15.392,15.392,0,0,0-.508,4.613v41.984a15.463,15.463,0,0,0,.508,4.571,3.065,3.065,0,0,0,1.989,2.032,17.5,17.5,0,0,0,4.36.677v1.693c-1.3-.113-2.941-.183-4.868-.21s-3.915-.043-5.883-.043c-2.193,0-4.272.015-6.179.043s-3.468.1-4.657.211ZM0,120.663H0V118.97a17.5,17.5,0,0,0,4.36-.677,3.064,3.064,0,0,0,1.989-2.031,15.489,15.489,0,0,0,.508-4.571V69.706a15.426,15.426,0,0,0-.508-4.613A3.182,3.182,0,0,0,4.36,63.062,14.483,14.483,0,0,0,0,62.428V60.735c2.008.055,4.229.1,6.6.127l2.116.026H9.1l4.362.057c2.244.028,4.366.043,6.306.043h4.789c2.588,0,5.564-.015,8.845-.043s6.243-.1,8.845-.211c-.226,2.134-.382,4.226-.465,6.222s-.126,3.555-.126,4.614c0,1.342.028,2.623.085,3.809.06,1.242.113,2.267.169,3.132H39.956a53.072,53.072,0,0,0-1.608-9.353,8.22,8.22,0,0,0-3.555-4.952c-1.685-1.016-4.334-1.524-7.872-1.524H21.584a15.5,15.5,0,0,0-4.36.465,2.942,2.942,0,0,0-1.989,1.947,15.426,15.426,0,0,0-.508,4.613V90.529h6.179a6.922,6.922,0,0,0,4.28-1.143,6.6,6.6,0,0,0,2.153-2.919,16.448,16.448,0,0,0,.93-3.683c.167-1.254.338-2.407.508-3.428h1.948c-.226,3.2-.325,5.681-.3,7.364s.043,3.254.043,4.657.028,2.959.085,4.655.2,4.162.423,7.364H29.032c-.226-1.785-.493-3.565-.8-5.29A8.109,8.109,0,0,0,26.2,93.876c-1.04-1.095-2.822-1.65-5.291-1.65H14.732v19.469a12.562,12.562,0,0,0,.635,4.571,3.523,3.523,0,0,0,2.5,2.031,26.913,26.913,0,0,0,5.417.677v1.693c-1.474-.113-3.353-.183-5.587-.21s-4.551-.043-6.856-.043c-2.194,0-4.273.015-6.18.043s-3.466.1-4.656.211Zm103.607,0h0V118.97a22.539,22.539,0,0,0,5.417-.762,3.715,3.715,0,0,0,2.5-2.285,15.421,15.421,0,0,0,.635-5.079V62.682h-4.573c-3.482,0-6.117.513-7.83,1.524a8.161,8.161,0,0,0-3.6,4.952,53.074,53.074,0,0,0-1.61,9.353h-1.94a31.284,31.284,0,0,0,.211-3.132c.028-1.187.043-2.464.043-3.809,0-1.058-.043-2.609-.128-4.614s-.241-4.088-.466-6.222c2.144.052,4.6.106,7.746.169,2.8.056,5.631.085,8.423.085H123.8c2.764,0,5.6-.028,8.423-.085,3-.061,5.519-.113,7.7-.169-.226,2.133-.382,4.225-.465,6.222-.085,1.978-.128,3.53-.128,4.614,0,1.361.028,2.643.085,3.809s.113,2.213.169,3.132H137.64a53.172,53.172,0,0,0-1.608-9.353,8.223,8.223,0,0,0-3.555-4.952c-1.685-1.016-4.334-1.524-7.872-1.524h-4.571v48.164a15.38,15.38,0,0,0,.635,5.079,3.709,3.709,0,0,0,2.5,2.285,22.527,22.527,0,0,0,5.417.762v1.693c-1.467-.113-3.351-.183-5.586-.21s-4.551-.043-6.856-.043c-2.53,0-4.937.015-7.152.043s-4.019.1-5.376.211Zm156.173,0h0V118.97a17.486,17.486,0,0,0,4.359-.677,3.066,3.066,0,0,0,1.99-2.031,15.481,15.481,0,0,0,.508-4.571V69.706a15.424,15.424,0,0,0-.508-4.613,3.186,3.186,0,0,0-1.99-2.031,14.468,14.468,0,0,0-4.359-.634V60.735c2.008.055,4.229.1,6.6.127l2.116.026h.358l4.382.054c2.244.028,4.365.043,6.306.043h4.781c2.588,0,5.564-.015,8.845-.043s6.243-.1,8.845-.211c-.226,1.965-.382,3.9-.465,5.756s-.126,3.286-.126,4.231c0,1.007.028,1.989.085,2.921.059.963.113,1.725.169,2.328H299.73a40.761,40.761,0,0,0-1.433-7.913,6.866,6.866,0,0,0-3.174-4.148,14.5,14.5,0,0,0-6.729-1.227h-7.026a15.5,15.5,0,0,0-4.36.465,2.941,2.941,0,0,0-1.989,1.947,15.434,15.434,0,0,0-.508,4.613V89.682H280.1a6.917,6.917,0,0,0,4.274-1.143,6.591,6.591,0,0,0,2.159-2.921,16.455,16.455,0,0,0,.931-3.682c.175-1.3.339-2.426.508-3.428h1.947c-.226,3.193-.325,5.67-.3,7.364s.043,3.259.043,4.655c0,1.428.028,2.994.085,4.657.055,1.683.2,4.161.423,7.364h-1.947c-.226-1.789-.493-3.569-.8-5.291a8.089,8.089,0,0,0-2.031-4.231c-1.038-1.095-2.821-1.651-5.29-1.651h-5.593v20.315a15.488,15.488,0,0,0,.508,4.571A2.946,2.946,0,0,0,277,118.25a15.5,15.5,0,0,0,4.36.465h6.179a18.023,18.023,0,0,0,8.084-1.438,8.424,8.424,0,0,0,3.977-4.7,37.161,37.161,0,0,0,1.82-8.846h1.947a57.991,57.991,0,0,0-.254,6.094c0,1.084.043,2.637.126,4.614s.241,4.082.465,6.22c-2.887-.113-6.161-.183-9.734-.21-3.59-.028-6.837-.043-9.65-.043H279.54c-1.941,0-4.063.015-6.305.043l-4.382.054h-.358l-2.115.029c-2.345.031-4.566.073-6.6.129Zm178.349,0h0c-1.3-.113-2.934-.184-4.865-.211s-3.915-.043-5.883-.043h-1.737c1.965-1.308,4.03-2.709,6.139-4.148a3.068,3.068,0,0,0,1.99,2.031,17.493,17.493,0,0,0,4.359.677v1.693Zm-6.347-4.4h0a15.506,15.506,0,0,1-.508-4.571v-4.937c-2.651,1.911-5.3,3.782-7.875,5.565,0-.2.006-.413.006-.624V69.71A15.4,15.4,0,0,0,422.9,65.1a3.181,3.181,0,0,0-1.989-2.031,14.468,14.468,0,0,0-4.36-.634V60.739c1.141.055,2.664.113,4.657.169,1.919.056,4,.085,6.179.085,1.955,0,3.934-.028,5.883-.085,2.01-.059,3.6-.113,4.867-.169v1.693a14.463,14.463,0,0,0-4.359.635,3.183,3.183,0,0,0-1.99,2.031,15.426,15.426,0,0,0-.508,4.613v37.042c13.7-9.872,28.046-21.206,41.495-32.776l5.958,6.823-2.923,2.483-.047.054-.006.007-.015.018c-2.484,2.136-21.128,17.26-43.955,32.9Zm-69.523-6.686h0c-.315-.545-.618-1.115-.9-1.693a36.733,36.733,0,0,1-3.3-16.167,38.393,38.393,0,0,1,3.555-17.1A27.264,27.264,0,0,1,371.3,63.486a25.493,25.493,0,0,1,14.008-3.936A20.492,20.492,0,0,1,394.2,61.2a40.3,40.3,0,0,1,6.348,3.852,3.3,3.3,0,0,0,1.693.846c1.068,0,1.78-1.737,2.116-5.163H406.3c-.113,2.086-.2,4.648-.254,7.618s-.085,6.861-.085,11.85h-1.947c-.394-2.362-.878-4.669-1.439-6.856a14.514,14.514,0,0,0-2.793-5.672,16.325,16.325,0,0,0-6.433-4.867,20.425,20.425,0,0,0-8.211-1.736,14.58,14.58,0,0,0-7.661,2.074,18.116,18.116,0,0,0-5.883,5.968,31.185,31.185,0,0,0-3.766,9.353,53.1,53.1,0,0,0-1.312,12.315,65.119,65.119,0,0,0,.993,12.054c-1.869,2.29-3.636,4.557-5.254,6.739Zm5.633-4.972h0c-.135-.573-.263-1.168-.377-1.766a271.567,271.567,0,0,1,22.2-23.823,221.256,221.256,0,0,0-21.178,24.717q-.322.433-.64.868ZM471.14,66.5,428.9,44.526,552.4,0a827.54,827.54,0,0,1-69.225,57.559L471.14,66.5Z" transform="translate(-8911.301 -11753.371)" fill="#44b1c2"/></g></svg>