<svg xmlns="http://www.w3.org/2000/svg" width="162.938" height="44.331" viewBox="0 0 162.938 44.331"><path d="M106.67,44.331H106.6a4.869,4.869,0,0,1-1.476-.214,3.183,3.183,0,0,1-2.239-2.033,6.4,6.4,0,0,1,.6-4.277,27.832,27.832,0,0,1,3.31-5.5c.092.16.192.319.3.472-1.9,2.818-3.975,6.526-3.121,8.19A1.963,1.963,0,0,0,105.514,42a4.948,4.948,0,0,0,.878.074,8.4,8.4,0,0,0,1.531-.157c4.74-.89,11.807-5.279,16.9-8.8a4.129,4.129,0,0,1-.148,1.163.9.9,0,0,1-.586.6,5.16,5.16,0,0,1-1.285.2v.5c.352-.033.814-.054,1.373-.062.411-.006.851-.01,1.309-.012a103.93,103.93,0,0,1-9.164,5.523,30.666,30.666,0,0,1-7.99,3.133,9.34,9.34,0,0,1-1.662.176m43.049-8.092h0L143.181,23.89l2.588-3.442A243.014,243.014,0,0,1,162.938.085L149.719,36.239Zm-35.975-.317a8.7,8.7,0,0,1-4.4-1.061,6.844,6.844,0,0,1-2.245-2.085c.42-.625.879-1.277,1.364-1.937a7.367,7.367,0,0,0,1.044,2.5,5.112,5.112,0,0,0,4.492,2.084,4.244,4.244,0,0,0,1.559-.262,5.724,5.724,0,0,0,1.035-.511,1.637,1.637,0,0,0,.6-.612,1.946,1.946,0,0,0,.125-.761v-2.4a4.366,4.366,0,0,0-.2-1.522,1.13,1.13,0,0,0-.736-.674,5.92,5.92,0,0,0-1.585-.2v-.5c.3.016.65.029,1.048.038l1.26.025c.439.008.846.013,1.21.013.546,0,1.046-.008,1.485-.025s.8-.033,1.11-.05v.5a1.97,1.97,0,0,0-.824.175.81.81,0,0,0-.362.6,7.872,7.872,0,0,0-.088,1.373v4.941h-.5a3.721,3.721,0,0,0-.187-.923c-.108-.333-.272-.5-.487-.5a.669.669,0,0,0-.3.075,4.6,4.6,0,0,0-.524.349,7.316,7.316,0,0,1-1.747.986,5.884,5.884,0,0,1-2.146.362Zm-16.046,0a5.99,5.99,0,0,1-2.1-.3A9.045,9.045,0,0,1,94.279,35a1.815,1.815,0,0,0-.848-.349.38.38,0,0,0-.362.274,3.593,3.593,0,0,0-.187.824h-.575c.033-.345.054-.761.062-1.235s.017-1.1.025-1.859.012-1.742.012-2.895h.574a10.4,10.4,0,0,0,.561,2.795,4.647,4.647,0,0,0,1.422,2.083,3.933,3.933,0,0,0,2.558.786,3.72,3.72,0,0,0,1.56-.337,2.839,2.839,0,0,0,1.21-1.073,3.488,3.488,0,0,0,.474-1.909,3.257,3.257,0,0,0-.487-1.784A5.615,5.615,0,0,0,98.92,28.9a22.451,22.451,0,0,0-2.046-1.36c-.78-.481-1.518-.976-2.2-1.472a6.226,6.226,0,0,1-1.635-1.734,4.454,4.454,0,0,1-.611-2.383,4.217,4.217,0,0,1,.661-2.433,3.987,3.987,0,0,1,1.735-1.422,5.769,5.769,0,0,1,2.3-.462,4.9,4.9,0,0,1,1.9.287,6.813,6.813,0,0,1,1.148.636c.2.115.362.2.486.262a.86.86,0,0,0,.362.087.38.38,0,0,0,.362-.274,3.613,3.613,0,0,0,.187-.824h.574c-.016.273-.036.594-.062,1.01-.025.391-.042.912-.05,1.547s-.012,1.461-.012,2.533h-.574a7.246,7.246,0,0,0-.524-2.3,4.445,4.445,0,0,0-1.31-1.8,3.488,3.488,0,0,0-2.259-.7,3.1,3.1,0,0,0-2.183.8A2.737,2.737,0,0,0,94.3,21a3.053,3.053,0,0,0,.574,1.884,5.8,5.8,0,0,0,1.535,1.373c.646.411,1.347.852,2.084,1.31A25.925,25.925,0,0,1,100.8,27.15a6.658,6.658,0,0,1,1.6,1.734,4.3,4.3,0,0,1,.587,2.3,4.572,4.572,0,0,1-.724,2.645,4.475,4.475,0,0,1-1.922,1.572,6.561,6.561,0,0,1-2.645.524Zm-39.853-.349h0c-.382-.033-.865-.055-1.435-.063s-1.154-.013-1.734-.013c-.647,0-1.259,0-1.822.013s-1.022.029-1.372.062v-.5a5.158,5.158,0,0,0,1.285-.2.9.9,0,0,0,.587-.6,4.567,4.567,0,0,0,.15-1.348V20.55a4.55,4.55,0,0,0-.15-1.36.939.939,0,0,0-.587-.6,4.265,4.265,0,0,0-1.285-.187v-.5c.335.016.784.033,1.372.05.566.017,1.179.025,1.822.025.576,0,1.16-.008,1.734-.025.593-.017,1.062-.033,1.435-.05v.5a4.266,4.266,0,0,0-1.285.187.937.937,0,0,0-.586.6,4.535,4.535,0,0,0-.15,1.36V26.44h8.11V20.551a4.547,4.547,0,0,0-.15-1.36.938.938,0,0,0-.586-.6,4.27,4.27,0,0,0-1.285-.187v-.5c.366.016.839.033,1.447.05.583.017,1.163.025,1.722.025.643,0,1.256-.008,1.822-.025.583-.017,1.031-.033,1.373-.05v.5a4.266,4.266,0,0,0-1.285.187.938.938,0,0,0-.586.6,4.548,4.548,0,0,0-.15,1.36V32.928a4.567,4.567,0,0,0,.15,1.348.9.9,0,0,0,.586.6,5.157,5.157,0,0,0,1.285.2v.5c-.351-.033-.812-.054-1.373-.062S65.73,35.5,65.083,35.5c-.564,0-1.143,0-1.722.013s-1.065.029-1.447.062v-.5a5.158,5.158,0,0,0,1.285-.2.9.9,0,0,0,.586-.6,4.568,4.568,0,0,0,.15-1.348V26.94h-8.11v5.989a4.559,4.559,0,0,0,.15,1.348.9.9,0,0,0,.586.6,5.157,5.157,0,0,0,1.285.2v.5Zm-41.275,0h0c-.466-.033-.956-.055-1.46-.063s-.979-.013-1.41-.013c-.415,0-.771,0-1.061.013a7.866,7.866,0,0,0-.811.062v-.5a2.513,2.513,0,0,0,1.023-.586A4.006,4.006,0,0,0,13.8,32.9l5.865-15.122h.4l6.089,15.7A2.64,2.64,0,0,0,27,34.737a1.838,1.838,0,0,0,.873.337v.5c-.333-.033-.745-.054-1.223-.062s-.965-.013-1.447-.013c-.647,0-1.26,0-1.822.013s-1.022.029-1.373.062v-.5a2.446,2.446,0,0,0,1.622-.437c.232-.257.181-.815-.15-1.66l-1.531-4.093H15.917L14.9,31.53a6.685,6.685,0,0,0-.474,1.685,1.892,1.892,0,0,0,.137,1.086,1.226,1.226,0,0,0,.724.574,4.491,4.491,0,0,0,1.285.2v.5Zm2.406-14.637-2.867,7.45h5.656ZM43.022,35.573h0v-.5a5.157,5.157,0,0,0,1.285-.2.9.9,0,0,0,.586-.6,4.557,4.557,0,0,0,.15-1.348V20.55a4.536,4.536,0,0,0-.15-1.36.938.938,0,0,0-.586-.6,4.267,4.267,0,0,0-1.285-.187v-.5c.336.016.785.033,1.373.05.566.017,1.179.025,1.822.025.576,0,1.16-.008,1.734-.025.593-.017,1.062-.033,1.435-.05v.5a4.265,4.265,0,0,0-1.285.187.938.938,0,0,0-.586.6,4.538,4.538,0,0,0-.15,1.36V32.928a4.559,4.559,0,0,0,.15,1.348.9.9,0,0,0,.586.6,5.16,5.16,0,0,0,1.285.2v.5c-.384-.033-.867-.054-1.435-.062S46.8,35.5,46.216,35.5c-.647,0-1.259,0-1.822.013s-1.023.029-1.373.062ZM0,35.573H0v-.5a5.16,5.16,0,0,0,1.285-.2.9.9,0,0,0,.586-.6,4.566,4.566,0,0,0,.15-1.348V20.55a4.548,4.548,0,0,0-.15-1.36.938.938,0,0,0-.586-.6A4.27,4.27,0,0,0,0,18.4v-.5c.592.016,1.247.029,1.946.038l.624.008h.111l1.286.017c.661.008,1.287.013,1.859.013H7.238c.763,0,1.64,0,2.608-.013s1.841-.029,2.608-.062c-.067.629-.112,1.246-.137,1.834s-.037,1.048-.037,1.36c0,.4.008.773.025,1.123.018.366.033.668.05.923H11.78a15.646,15.646,0,0,0-.474-2.757,2.423,2.423,0,0,0-1.048-1.46,4.652,4.652,0,0,0-2.321-.449H6.363a4.57,4.57,0,0,0-1.285.137.867.867,0,0,0-.586.574,4.548,4.548,0,0,0-.15,1.36v6.139H6.163a2.041,2.041,0,0,0,1.262-.337,1.946,1.946,0,0,0,.635-.86,4.849,4.849,0,0,0,.274-1.086c.049-.37.1-.71.15-1.01h.574c-.067.945-.1,1.675-.087,2.171s.013.959.013,1.373.008.872.025,1.372.059,1.227.125,2.171H8.559c-.067-.526-.145-1.051-.237-1.559a2.391,2.391,0,0,0-.6-1.248,2.1,2.1,0,0,0-1.56-.486H4.343v5.74a3.7,3.7,0,0,0,.187,1.348,1.039,1.039,0,0,0,.736.6,7.934,7.934,0,0,0,1.6.2v.5c-.435-.033-.989-.054-1.647-.062S3.875,35.5,3.2,35.5c-.647,0-1.26,0-1.822.013S.351,35.541,0,35.574Zm30.544,0h0v-.5a6.645,6.645,0,0,0,1.6-.225,1.1,1.1,0,0,0,.736-.674,4.546,4.546,0,0,0,.187-1.5v-14.2H31.717a4.678,4.678,0,0,0-2.308.449,2.406,2.406,0,0,0-1.06,1.46,15.646,15.646,0,0,0-.475,2.757H27.3a9.223,9.223,0,0,0,.062-.923c.008-.35.013-.726.013-1.123,0-.312-.013-.769-.038-1.36s-.071-1.205-.137-1.834c.632.015,1.357.031,2.284.05.824.017,1.66.025,2.483.025H36.5c.815,0,1.65-.008,2.483-.025.884-.018,1.627-.033,2.271-.05-.067.629-.112,1.246-.137,1.834s-.038,1.041-.038,1.36c0,.4.008.779.025,1.123s.033.652.05.923h-.574a15.675,15.675,0,0,0-.474-2.757,2.424,2.424,0,0,0-1.048-1.46,4.652,4.652,0,0,0-2.321-.449H35.387v14.2a4.534,4.534,0,0,0,.187,1.5,1.093,1.093,0,0,0,.736.674,6.641,6.641,0,0,0,1.6.225v.5c-.433-.033-.988-.054-1.647-.062s-1.342-.013-2.021-.013c-.746,0-1.455,0-2.109.013s-1.185.029-1.585.062Zm46.042,0h0v-.5a5.155,5.155,0,0,0,1.285-.2.9.9,0,0,0,.587-.6,4.564,4.564,0,0,0,.15-1.348V20.55a4.547,4.547,0,0,0-.15-1.36.939.939,0,0,0-.587-.6,4.265,4.265,0,0,0-1.285-.187v-.5c.592.016,1.247.029,1.946.038l.624.008h.105l1.292.016c.661.008,1.287.013,1.859.013h1.409c.763,0,1.64,0,2.608-.013s1.841-.029,2.608-.062c-.067.579-.112,1.15-.137,1.7s-.037.969-.037,1.247c0,.3.008.586.025.861s.033.508.05.686h-.574a12.017,12.017,0,0,0-.423-2.333,2.024,2.024,0,0,0-.936-1.223,4.275,4.275,0,0,0-1.984-.362H82.951a4.57,4.57,0,0,0-1.285.137.867.867,0,0,0-.586.574,4.55,4.55,0,0,0-.15,1.36v5.889h1.647a2.039,2.039,0,0,0,1.26-.337,1.943,1.943,0,0,0,.636-.861,4.851,4.851,0,0,0,.275-1.085c.052-.385.1-.715.15-1.01h.574c-.067.941-.1,1.672-.088,2.171s.013.961.013,1.372.008.883.025,1.373.059,1.227.125,2.171h-.574c-.067-.527-.145-1.052-.237-1.56a2.385,2.385,0,0,0-.6-1.247,2.1,2.1,0,0,0-1.559-.487H80.928v5.989a4.566,4.566,0,0,0,.15,1.348.868.868,0,0,0,.586.586A4.57,4.57,0,0,0,82.949,35h1.822a5.313,5.313,0,0,0,2.383-.424,2.483,2.483,0,0,0,1.173-1.385,10.956,10.956,0,0,0,.537-2.608h.574a17.1,17.1,0,0,0-.075,1.8c0,.319.013.777.037,1.36s.071,1.2.137,1.834c-.851-.033-1.816-.054-2.87-.062s-2.016-.013-2.845-.013h-1.41c-.572,0-1.2,0-1.859.013l-1.292.016h-.105l-.624.009c-.691.009-1.346.022-1.945.038Zm52.579,0h0c-.384-.033-.865-.054-1.434-.062S126.577,35.5,126,35.5h-.512c.579-.386,1.188-.8,1.81-1.223a.9.9,0,0,0,.587.6,5.157,5.157,0,0,0,1.285.2v.5Zm-1.871-1.3h0a4.571,4.571,0,0,1-.15-1.348V31.472c-.782.563-1.564,1.115-2.322,1.641,0-.06,0-.122,0-.184V20.551a4.541,4.541,0,0,0-.15-1.36.938.938,0,0,0-.586-.6,4.265,4.265,0,0,0-1.285-.187v-.5c.336.016.785.033,1.373.05.566.017,1.179.025,1.822.025.576,0,1.16-.008,1.734-.025.593-.017,1.062-.033,1.435-.05v.5a4.264,4.264,0,0,0-1.285.187.939.939,0,0,0-.587.6,4.548,4.548,0,0,0-.15,1.36v10.92c4.038-2.91,8.268-6.252,12.233-9.663l1.756,2.011-.862.732-.014.016,0,0,0,.005c-.732.63-6.229,5.088-12.958,9.7ZM106.8,32.3h0c-.093-.161-.182-.329-.266-.5a10.829,10.829,0,0,1-.973-4.766A11.319,11.319,0,0,1,106.607,22a8.038,8.038,0,0,1,2.858-3.282,7.516,7.516,0,0,1,4.13-1.16,6.041,6.041,0,0,1,2.62.486,11.88,11.88,0,0,1,1.872,1.136.972.972,0,0,0,.5.249c.315,0,.525-.512.624-1.522h.574c-.033.615-.059,1.37-.075,2.246s-.025,2.023-.025,3.494h-.574c-.116-.7-.259-1.377-.424-2.021a4.279,4.279,0,0,0-.824-1.672,4.813,4.813,0,0,0-1.9-1.435A6.022,6.022,0,0,0,113.544,18a4.3,4.3,0,0,0-2.259.612,5.341,5.341,0,0,0-1.735,1.76,9.194,9.194,0,0,0-1.11,2.757,15.655,15.655,0,0,0-.387,3.631,19.2,19.2,0,0,0,.293,3.554c-.551.675-1.072,1.344-1.549,1.987Zm1.661-1.466h0c-.04-.169-.078-.344-.111-.521a80.059,80.059,0,0,1,6.544-7.023,65.23,65.23,0,0,0-6.244,7.287l-.189.256ZM138.9,19.6l-12.453-6.477L162.855,0a243.967,243.967,0,0,1-20.408,16.969L138.9,19.6Z" fill="#dfd388"/></svg>